<svg xmlns="http://www.w3.org/2000/svg" width="195px" height="72px" viewBox="0 0 195 72" version="1.1"><title>desk-logo</title><desc>Created with Sketch.</desc><g stroke="none" stroke-width="1" fill="none" fill-rule="evenodd"><path d="M42.7293127 7.85514286C46.040756 4.39914286 50.6513918 2.25485714 55.7506151 2.25485714 62.5280928 2.25485714 68.4421993 6.04085714 71.5904948 11.6617143 74.328354 10.4362857 77.3574261 9.75485714 80.5442268 9.75485714 92.7694708 9.75485714 102.680412 19.7694286 102.680412 32.124 102.680412 44.4782857 92.7694708 54.4931429 80.5442268 54.4931429 79.0516529 54.4931429 77.5935911 54.3428571 76.1834467 54.058 73.4107904 59.0122857 68.1253162 62.3602857 62.0600412 62.3602857 59.521268 62.3602857 57.1194021 61.7731429 54.9807973 60.728 52.1696357 67.3522857 45.6189107 71.9971429 37.9863333 71.9971429 30.0363024 71.9971429 23.2602509 66.9585714 20.6607251 59.892 19.5238247 60.1328571 18.345567 60.2594286 17.1379313 60.2594286 7.67279381 60.2594286 0 52.4934286 0 42.9131429 0 36.4922857 3.4469244 30.8868571 8.56982131 27.8874286 7.51506529 25.456 6.92921649 22.7734286 6.92921649 19.9537143 6.92921649 8.93514286 15.8578488 0.00285714286 26.8723196 0.00285714286 33.3389038 0.00285714286 39.0855842 3.08257143 42.7293127 7.85514286" fill="#3498DB"/><path d="M14.8721168 37.3374286C14.8073711 37.506 14.8952199 37.5411429 14.9160412 37.5711429 15.108567 37.7108571 15.3048007 37.812 15.5024605 37.9254286 16.5492302 38.4811429 17.5386701 38.644 18.5723196 38.644 20.6786942 38.644 21.987299 37.522 21.987299 35.716L21.987299 35.68C21.987299 34.01 20.5104124 33.4028571 19.1262234 32.9651429L18.9451065 32.9062857C17.9014742 32.5665714 16.9998832 32.2734286 16.9998832 31.5845714L16.9998832 31.5488571C16.9998832 30.9591429 17.5272612 30.5254286 18.343 30.5254286 19.2505808 30.5254286 20.3258729 30.8277143 21.0192509 31.2111429 21.0192509 31.2111429 21.2234708 31.3434286 21.2979141 31.1457143 21.3381306 31.0391429 21.6892405 30.0937143 21.7260344 29.9911429 21.7659656 29.88 21.6958007 29.7971429 21.6239244 29.7531429 20.8318591 29.2705714 19.7383127 28.9417143 18.6062612 28.9417143L18.3960515 28.9425714C16.4682268 28.9425714 15.1219725 30.1097143 15.1219725 31.7811429L15.1219725 31.8171429C15.1219725 33.5782857 16.6065601 34.1508571 17.9981649 34.5491429L18.2214948 34.6182857C19.2346082 34.9297143 20.1091031 35.1985714 20.1091031 35.9125714L20.1091031 35.9482857C20.1091031 36.602 19.5406529 37.0877143 18.6250859 37.0877143 18.2696976 37.0877143 17.1367904 37.0814286 15.9123265 36.3054286 15.7640103 36.2194286 15.6787285 36.1568571 15.5646392 36.0868571 15.504457 36.05 15.3535739 35.984 15.2879725 36.1822857L14.8721168 37.3374286" fill="#FFFFFF"/><path d="M45.7067595 37.3374286C45.642299 37.506 45.7301478 37.5411429 45.7509691 37.5711429 45.9434948 37.7108571 46.1397285 37.812 46.3371031 37.9254286 47.3841581 38.4811429 48.3735979 38.644 49.4072474 38.644 51.513622 38.644 52.8219416 37.522 52.8219416 35.716L52.8219416 35.68C52.8219416 34.01 51.3453402 33.4028571 49.960866 32.9651429L49.7800344 32.9062857C48.7364021 32.5665714 47.834811 32.2734286 47.834811 31.5845714L47.834811 31.5488571C47.834811 30.9591429 48.362189 30.5254286 49.1779278 30.5254286 50.0855086 30.5254286 51.1605155 30.8277143 51.8541787 31.2111429 51.8541787 31.2111429 52.0583986 31.3434286 52.1328419 31.1457143 52.1730584 31.0391429 52.5238832 30.0937143 52.5609622 29.9911429 52.6008935 29.88 52.5307285 29.7971429 52.4588522 29.7531429 51.6665017 29.2705714 50.5729553 28.9417143 49.441189 28.9417143L49.2306942 28.9425714C47.3031546 28.9425714 45.9569003 30.1097143 45.9569003 31.7811429L45.9569003 31.8171429C45.9569003 33.5782857 47.441488 34.1508571 48.8328076 34.5491429L49.0564227 34.6182857C50.0692509 34.9297143 50.9440309 35.1985714 50.9440309 35.9125714L50.9440309 35.9482857C50.9440309 36.602 50.3755808 37.0877143 49.4600137 37.0877143 49.1046254 37.0877143 47.971433 37.0814286 46.7469691 36.3054286 46.5986529 36.2194286 46.511945 36.1597143 46.399567 36.0868571 46.3613471 36.0622857 46.1836529 35.9934286 46.1229003 36.1822857L45.7067595 37.3374286" fill="#FFFFFF"/><path d="M68.5157869 31.906C68.3423711 31.3208571 68.0734055 30.8057143 67.7154502 30.376 67.3566392 29.9451429 66.9025636 29.5991429 66.3652027 29.3477143 65.8281271 29.0965714 65.1937904 28.9694286 64.4804467 28.9694286 63.7671031 28.9694286 63.1327663 29.0965714 62.5954055 29.3477143 62.0580447 29.5991429 61.6036838 29.9451429 61.2448729 30.3765714 60.8869175 30.8071429 60.6173814 31.3217143 60.4448213 31.906 60.2734021 32.4871429 60.1864089 33.1237143 60.1864089 33.7985714 60.1864089 34.4737143 60.2734021 35.1108571 60.4448213 35.6908571 60.6173814 36.2751429 60.8863471 36.79 61.2451581 37.2211429 61.6042543 37.6525714 62.0591856 37.996 62.5962612 38.2411429 63.1339072 38.486 63.7676735 38.6105714 64.4804467 38.6105714 65.1932199 38.6105714 65.826701 38.486 66.3643471 38.2411429 66.9017079 37.996 67.3560687 37.6525714 67.7154502 37.2211429 68.0734055 36.7911429 68.3423711 36.2762857 68.5157869 35.6908571 68.6872062 35.1097143 68.7741993 34.4728571 68.7741993 33.7985714 68.7741993 33.1242857 68.6872062 32.4877143 68.5157869 31.906M66.7570997 33.7985714C66.7570997 34.8191429 66.5671409 35.6245714 66.1929278 36.1922857 65.8218522 36.7557143 65.2619588 37.0294286 64.4804467 37.0294286 63.6989347 37.0294286 63.1416082 36.756 62.7768076 36.1928571 62.408299 35.6248571 62.2209072 34.8191429 62.2209072 33.7985714 62.2209072 32.7785714 62.4080137 31.9757143 62.7765223 31.4134286 63.1416082 30.856 63.6989347 30.5854286 64.4804467 30.5854286 65.2619588 30.5854286 65.8218522 30.8562857 66.1932131 31.414 66.5674261 31.976 66.7570997 32.7785714 66.7570997 33.7985714" fill="#FFFFFF"/><path d="M82.9529381 36.7565714C82.8950378 36.5854286 82.7287526 36.65 82.7287526 36.65 82.472622 36.748 82.2010893 36.8385714 81.9110172 36.884 81.6178076 36.93 81.294079 36.9531429 80.9472474 36.9531429 80.0969966 36.9531429 79.4201615 36.6991429 78.9367079 36.1985714 78.451543 35.6971429 78.178299 34.8868571 78.1811512 33.7908571 78.1842887 32.794 78.4250172 32.044 78.8562749 31.4714286 79.2846804 30.9028571 79.9375567 30.6117143 80.8066323 30.6117143 81.5319553 30.6117143 82.0855739 30.6957143 82.665433 30.8777143 82.665433 30.8777143 82.8031959 30.9382857 82.8690825 30.756 83.0233883 30.3282857 83.1374777 30.0231429 83.3017663 29.5528571 83.348543 29.4188571 83.2338832 29.3617143 83.1922405 29.3451429 82.9643471 29.2565714 82.4258454 29.1108571 82.0194021 29.0488571 81.6391993 28.9911429 81.1953918 28.9602857 80.7005292 28.9602857 79.9620859 28.9602857 79.3032199 29.0871429 78.7404742 29.338 78.1788694 29.5888571 77.7022612 29.9348571 77.3249107 30.3657143 76.9472749 30.7965714 76.6597698 31.3111429 76.4692405 31.8954286 76.2787113 32.4768571 76.1825911 33.1148571 76.1825911 33.7911429 76.1825911 35.2525714 76.5761993 36.4322857 77.3520069 37.2968571 78.1309519 38.1645714 79.2989416 38.6051429 80.8237457 38.6051429 81.7241959 38.6051429 82.6483196 38.4225714 83.3134605 38.1602857 83.3134605 38.1602857 83.4403849 38.0994286 83.3850515 37.9511429L82.9529381 36.7565714" fill="#FFFFFF"/><path d="M91.9480275 31.574C91.7988557 31.0091429 91.4292062 30.4394286 91.1870515 30.1782857 90.8037113 29.7654286 90.4292131 29.476 90.0567113 29.316 89.5715464 29.1071429 88.9891203 28.9694286 88.3525017 28.9694286 87.6092096 28.9694286 86.9346564 29.0948571 86.3870275 29.3517143 85.8391134 29.6094286 85.3784777 29.962 85.0168144 30.3991429 84.6554364 30.8365714 84.384189 31.3571429 84.2107732 31.9474286 84.0376426 32.5342857 83.9497938 33.1745714 83.9497938 33.8497143 83.9497938 34.5371429 84.0404948 35.178 84.2199003 35.7534286 84.4004467 36.3345714 84.6908041 36.8445714 85.0821306 37.2685714 85.473457 37.6945714 85.9768763 38.0288571 86.5789828 38.2617143 87.1776667 38.4937143 87.904701 38.6142857 88.7389794 38.612 90.4583058 38.6065714 91.3630344 38.222 91.736677 38.0154286 91.8025636 37.9788571 91.8650275 37.9145714 91.7871615 37.7305714L91.3975464 36.6388571C91.3379347 36.476 91.173646 36.5354286 91.173646 36.5354286 90.7472371 36.6945714 90.1428488 36.9791429 88.7301375 36.9762857 87.8077251 36.9745714 87.1237595 36.7014286 86.6939278 36.2745714 86.2546838 35.8385714 86.0387698 35.1971429 86.0019759 34.2917143L91.9525911 34.2965714C91.9525911 34.2965714 92.1091787 34.2948571 92.1254364 34.1414286 92.1322818 34.078 92.3302268 32.9165714 91.9480275 31.574L91.9480275 31.574ZM86.0290722 32.8202857C86.1132131 32.2525714 86.2686598 31.7814286 86.5099588 31.4134286 86.8750447 30.856 87.4300893 30.5485714 88.2116014 30.5485714 88.9931134 30.5485714 89.5082268 30.8562857 89.8795876 31.414 90.1245945 31.782 90.2318385 32.2731429 90.2740515 32.8208571L86.0290722 32.8202857 86.0290722 32.8202857Z" fill="#FFFFFF"/><path d="M44.2837801 31.574C44.134323 31.0091429 43.7649588 30.4394286 43.5228041 30.1782857 43.1394639 29.7654286 42.7649656 29.476 42.3924639 29.316 41.907299 29.1071429 41.3248729 28.9694286 40.6879691 28.9694286 39.9452474 28.9694286 39.2704089 29.0948571 38.7227801 29.3517143 38.174866 29.6094286 37.7142302 29.962 37.352567 30.3991429 36.9909038 30.8365714 36.7199416 31.3571429 36.5465258 31.9474286 36.3733952 32.5342857 36.2855464 33.1745714 36.2855464 33.8497143 36.2855464 34.5371429 36.3762474 35.178 36.5556529 35.7534286 36.7364845 36.3345714 37.0265567 36.8445714 37.4178832 37.2685714 37.8092096 37.6945714 38.3126289 38.0288571 38.9147354 38.2617143 39.5137045 38.4937143 40.2404536 38.6142857 41.0750172 38.612 42.7943436 38.6065714 43.6987869 38.222 44.0724296 38.0154286 44.1383162 37.9788571 44.2007801 37.9145714 44.1226289 37.7305714L43.7335842 36.6388571C43.6739725 36.476 43.5093986 36.5354286 43.5093986 36.5354286 43.0829897 36.6945714 42.4788866 36.9791429 41.0656048 36.9762857 40.1437629 36.9745714 39.459512 36.7014286 39.0299656 36.2745714 38.5907216 35.8385714 38.3745223 35.1971429 38.3380137 34.2917143L44.2883436 34.2965714C44.2883436 34.2965714 44.4452165 34.2948571 44.461189 34.1414286 44.4680344 34.078 44.6659794 32.9165714 44.2837801 31.574L44.2837801 31.574ZM38.3648247 32.8202857C38.4489656 32.2525714 38.6044124 31.7814286 38.8454261 31.4134286 39.2107973 30.856 39.7658419 30.5485714 40.547354 30.5485714 41.328866 30.5485714 41.8439794 30.8562857 42.2156254 31.414 42.4603471 31.782 42.5675911 32.2731429 42.6098041 32.8208571L38.3648247 32.8202857 38.3648247 32.8202857Z" fill="#FFFFFF"/><path d="M27.86889 32.5345714C27.6270206 32.5168571 27.3144158 32.5077143 26.9396323 32.5077143 26.4302234 32.5077143 25.9367869 32.5711429 25.4741546 32.696 25.0092405 32.8214286 24.5911031 33.016 24.2314364 33.2734286 23.8697732 33.5334286 23.5791306 33.8637143 23.3683505 34.2565714 23.157 34.6497143 23.049756 35.1122857 23.049756 35.6305714 23.049756 36.1588571 23.1415979 36.6171429 23.3227148 36.9917143 23.5044021 37.368 23.7656667 37.682 24.0988076 37.9245714 24.4296667 38.166 24.8375361 38.3428571 25.3110069 38.4505714 25.7782027 38.5574286 26.308433 38.612 26.886866 38.612 27.4978144 38.612 28.1059107 38.5608571 28.6946117 38.4608571 29.2790344 38.3614286 29.994945 38.2154286 30.1934605 38.1694286 30.3919759 38.1237143 30.6107423 38.0637143 30.6107423 38.0637143 30.7582027 38.0262857 30.7465086 37.8682857 30.7465086 37.8682857L30.7436564 32.4165714C30.7436564 31.2202857 30.4253471 30.3348571 29.7978557 29.7845714 29.1732165 29.2374286 28.2539416 28.9602857 27.0645601 28.9602857 26.6173299 28.9602857 25.8999931 29.0208571 25.4690206 29.1074286 25.4690206 29.1074286 24.1701134 29.3594286 23.6344639 29.7797143 23.6344639 29.7797143 23.5172371 29.8522857 23.5814124 30.0168571L24.0026873 31.1505714C24.0551684 31.2974286 24.1977801 31.2471429 24.1977801 31.2471429 24.1977801 31.2471429 24.2428454 31.2294286 24.2956117 31.198 25.4404983 30.5748571 26.8888625 30.5934286 26.8888625 30.5934286 27.5320412 30.5934286 28.0269038 30.7231429 28.3594742 30.9785714 28.6846289 31.2282857 28.849488 31.6042857 28.849488 32.3988571L28.849488 32.6511429C28.3386529 32.5771429 27.86889 32.5345714 27.86889 32.5345714L27.86889 32.5345714ZM25.5003952 36.724C25.2673677 36.5377143 25.2351375 36.4914286 25.1572715 36.3705714 25.039189 36.1877143 24.9790069 35.9274286 24.9790069 35.5951429 24.9790069 35.0714286 25.1524227 34.6942857 25.5100928 34.4408571 25.5066701 34.442 26.0234948 33.9945714 27.2362646 34.0102857 28.0890825 34.0214286 28.8523402 34.148 28.8523402 34.148L28.8523402 36.8582857 28.8526254 36.8582857C28.8526254 36.8582857 28.0962131 37.0208571 27.2451065 37.0722857 26.0343333 37.1454286 25.4969725 36.7228571 25.5003952 36.724L25.5003952 36.724Z" fill="#FFFFFF"/><path d="M75.8711271 29.4631429C75.9167629 29.3282857 75.8209278 29.2634286 75.7821375 29.2485714 75.6805979 29.2097143 75.1746117 29.1025714 74.7844261 29.0782857 74.0365704 29.0325714 73.6215704 29.1582857 73.2496392 29.326 72.8808454 29.4925714 72.4718351 29.7617143 72.2442268 30.0688571L72.2436564 29.3422857C72.2436564 29.2425714 72.1726357 29.1617143 72.0728076 29.1617143L70.5471478 29.1617143C70.4476048 29.1617143 70.3765842 29.2425714 70.3765842 29.3422857L70.3765842 38.2357143C70.3765842 38.3354286 70.4570172 38.4162857 70.5568454 38.4162857L72.1207251 38.4162857C72.220268 38.4162857 72.3009863 38.3354286 72.3009863 38.2357143L72.3009863 33.7925714C72.3009863 33.196 72.3671581 32.6017143 72.4977904 32.228 72.6269966 31.858 72.8021237 31.5628571 73.0194639 31.3508571 73.2365189 31.1397143 73.4840928 30.9914286 73.7544845 30.9082857 74.0314364 30.8234286 74.3371959 30.7957143 74.55311 30.7957143 74.8642887 30.7957143 75.2068419 30.8757143 75.2068419 30.8757143 75.3217869 30.8885714 75.3853918 30.8182857 75.4238969 30.7145714 75.5262921 30.4422857 75.8157938 29.6251429 75.8711271 29.4631429" fill="#FFFFFF"/><path d="M61.1943883 25.3417143C61.0044296 25.2828571 60.8318694 25.2437143 60.6059725 25.2017143 60.3775086 25.1602857 60.1054055 25.1388571 59.797079 25.1388571 58.7212165 25.1388571 57.872677 25.444 57.2765601 26.0454286 56.6850069 26.6428571 56.2825567 27.5525714 56.0809038 28.7494286L56.0078866 29.1528571 54.6567835 29.1528571C54.6567835 29.1528571 54.4919244 29.1468571 54.4574124 29.3265714L54.2355086 30.566C54.2201065 30.6848571 54.2705911 30.7588571 54.4297457 30.7582857L55.7443402 30.7582857 54.4100653 38.2197143C54.3056735 38.8205714 54.1861649 39.3148571 54.0538213 39.6891429 53.9229038 40.0588571 53.7954089 40.336 53.6385361 40.5371429 53.486512 40.7314286 53.3424742 40.8748571 53.0937595 40.9582857 52.8886838 41.0274286 52.6525189 41.0591429 52.3935361 41.0591429 52.2494983 41.0591429 52.0578282 41.0351429 51.9166426 41.0068571 51.7751718 40.9788571 51.7015842 40.9471429 51.5951959 40.9022857 51.5951959 40.9022857 51.4411753 40.8434286 51.3804227 40.998 51.3307938 41.1245714 50.9805395 42.0905714 50.9386117 42.2097143 50.8969691 42.3277143 50.9560103 42.4211429 51.0304536 42.4474286 51.2052955 42.51 51.3356426 42.5508571 51.5740893 42.6071429 51.9052337 42.6851429 52.1844674 42.69 52.4460172 42.69 52.993646 42.69 53.4930722 42.6125714 53.906646 42.4631429 54.3233574 42.3122857 54.6858763 42.05 55.0064674 41.6945714 55.3530137 41.3102857 55.5712096 40.9091429 55.7799931 40.3608571 55.9864948 39.8174286 56.1624777 39.1437143 56.3030928 38.358L57.6439278 30.7582857 59.604268 30.7582857C59.604268 30.7582857 59.7691271 30.7642857 59.8036392 30.5845714L60.0252577 29.3451429C60.040945 29.2262857 59.9901753 29.1522857 59.8310206 29.1528571L57.9285808 29.1528571C57.9382784 29.1097143 58.0244158 28.4397143 58.2428969 27.8082857 58.3358797 27.5388571 58.5112921 27.3217143 58.6601787 27.1722857 58.8064983 27.0257143 58.9744948 26.9211429 59.1584639 26.8617143 59.3472818 26.8005714 59.5623402 26.7697143 59.797079 26.7697143 59.9764845 26.7697143 60.1527526 26.7905714 60.2859519 26.8191429 60.4707766 26.8582857 60.5426529 26.8791429 60.5905704 26.8937143 60.7845223 26.9528571 60.8104777 26.8954286 60.8486976 26.8017143L61.3039141 25.5494286C61.3506907 25.4154286 61.2360309 25.358 61.1943883 25.3417143" fill="#FFFFFF"/><path d="M34.6064364 38.2357143C34.6064364 38.3354286 34.5351306 38.4162857 34.4358729 38.4162857L32.8574467 38.4162857C32.7579038 38.4162857 32.6868832 38.3354286 32.6868832 38.2357143L32.6868832 25.5117143C32.6868832 25.412 32.7579038 25.3314286 32.8574467 25.3314286L34.4358729 25.3314286C34.5351306 25.3314286 34.6064364 25.412 34.6064364 25.5117143L34.6064364 38.2357143" fill="#FFFFFF"/><path d="M191.327538 24.904954L185.532073 23.7437821 179.056932 31.0812307 179.056932 12.7822857 173.60319 14.9682925 173.60319 37.7218923C172.900062 34.274873 169.459803 33.3360353 166.618815 32.5628995 164.536233 31.996157 162.738001 31.5066022 162.8138 30.0782098 162.888761 28.6775042 164.277847 28.1233467 165.620867 28.1950809 167.207616 28.2802391 168.496195 28.9363348 169.456034 30.1470075L173.464574 26.5783336C171.29028 24.1498567 167.762497 23.6103816 165.826487 23.5067654 161.370692 23.2680708 156.756599 25.2422308 156.49235 30.1914744 156.484393 30.3483668 156.480624 30.5002253 156.481043 30.6495668 154.888013 26.5896601 150.943545 23.7148367 146.326102 23.7148367 141.041546 23.7148367 136.638935 27.4798359 135.635544 32.4781608L135.635544 12.7881587 130.181802 14.973746 130.181802 25.1814035C128.576626 24.2501168 126.713484 23.7148367 124.724709 23.7148367 118.699335 23.7148367 113.814711 28.6070285 113.814711 34.6431927 113.814711 40.6789374 118.699335 45.5715487 124.724709 45.5715487 130.230799 45.5715487 134.781656 41.4843746 135.525405 36.1739428 136.268736 41.4843746 140.819594 45.5715487 146.326102 45.5715487 150.471583 45.5715487 154.076421 43.2554973 155.922812 39.8445549L150.018884 38.661569C149.047738 39.5580374 147.75204 40.1071609 146.326939 40.1071609 144.091085 40.1071609 142.170152 38.7588927 141.32799 36.829619L146.329871 36.829619 157.017079 36.8291995C157.160301 36.122764 157.235681 35.3919975 157.235681 34.6431927 157.235681 34.2526396 157.214742 33.8667009 157.174958 33.4870548 158.424591 35.6571206 161.139527 36.392921 163.448667 37.0188128 165.613329 37.6052717 167.482753 38.1116065 167.398579 39.6775944 167.339112 40.8060455 166.075241 41.4143183 164.019461 41.3035707 162.113185 41.2020521 160.628618 40.3970344 159.367259 38.7777701L155.365838 42.7743325C157.714344 45.3026501 161.45361 45.8656171 163.49892 45.9755258 165.686615 46.0929853 172.579278 46.0057296 173.60319 40.500231L173.60319 45.5744852 179.056932 45.5744852 179.056932 36.0199868 187.486928 45.5719682 194.306304 45.5719682 183.698246 33.5508185 191.327538 24.904954ZM127.209736 39.507278C126.463893 39.8898607 125.620474 40.1071609 124.725546 40.1071609 121.713278 40.1071609 119.270966 37.661065 119.270966 34.6431927 119.270966 31.6257398 121.713278 29.1792244 124.725546 29.1792244 127.737815 29.1792244 130.179708 31.6257398 130.179708 34.6431927 130.179708 35.8437975 129.792338 36.9537905 129.136951 37.8552929 129.234945 38.5055156 129.59635 39.228731 130.553676 39.8684663 131.016844 40.1776367 129.203118 40.6722254 127.209736 39.507278L127.209736 39.507278ZM141.32799 32.4576054C142.169733 30.5279122 144.091085 29.1792244 146.326939 29.1792244 148.563213 29.1792244 150.484565 30.5279122 151.326308 32.4576054L141.32799 32.4576054 141.32799 32.4576054Z" fill="#FFFFFF"/></g></svg>
